PathFileType	4	(X/Y/Z)	s01c0101.trc
DataRate	CameraRate	NumFrames	NumMarkers	Units	OrigDataRate	OrigDataStartFrame	OrigNumFrames
200	200	4	47	mm	200	500	2000
Frame#	Time	racr			lacr			c7			jug			rlel			rdr			llel			ldr			s2			lic			ric			lasi			rasi			rpsi			lpsi			rgt			lgt			rth1			rth2			rth3			rth4			rlfc			rsh1			rsh2			rsh3			rsh4			rlmal			rmmal			rcal			rtoe			rmt5			lth1			lth2			lth4			lth3			llfc			lsh1			lsh2			lsh3			lsh4			llmal			lcal			ltoe			lmt5			SBIKE			LBIKE			RBIKE			
		X1	Y1	Z1	X2	Y2	Z2	X3	Y3	Z3	X4	Y4	Z4	X5	Y5	Z5	X6	Y6	Z6	X7	Y7	Z7	X8	Y8	Z8	X9	Y9	Z9	X10	Y10	Z10	X11	Y11	Z11	X12	Y12	Z12	X13	Y13	Z13	X14	Y14	Z14	X15	Y15	Z15	X16	Y16	Z16	X17	Y17	Z17	X18	Y18	Z18	X19	Y19	Z19	X20	Y20	Z20	X21	Y21	Z21	X22	Y22	Z22	X23	Y23	Z23	X24	Y24	Z24	X25	Y25	Z25	X26	Y26	Z26	X27	Y27	Z27	X28	Y28	Z28	X29	Y29	Z29	X30	Y30	Z30	X31	Y31	Z31	X32	Y32	Z32	X33	Y33	Z33	X34	Y34	Z34	X35	Y35	Z35	X36	Y36	Z36	X37	Y37	Z37	X38	Y38	Z38	X39	Y39	Z39	X40	Y40	Z40	X41	Y41	Z41	X42	Y42	Z42	X43	Y43	Z43	X44	Y44	Z44	X45	Y45	Z45	X46	Y46	Z46	X47	Y47	Z47	
500	2.5000	505.798492	1329.231689	-119.639954	502.363068	1320.671631	-430.410614	444.453400	1405.839111	-274.057983	457.211548	1237.433228	-266.273651	570.474548	1067.303467	-7.978354	724.602112	854.839478	-54.577442	523.104370	1042.954468	-537.898865	707.703491	880.169006	-440.970398	-75.154495	1170.168945	-257.402466	93.511292	1177.844238	-433.597534	81.762894	1187.964966	-97.149773	99.901703	1129.756592	-402.448730	109.843452	1143.405640	-126.284882	-48.726738	1214.425537	-205.773743	-48.391113	1213.710327	-311.179230	39.327965	1081.572510	-61.010025	45.249161	1039.892212	-442.013397	156.045334	1015.769714	-48.781403	233.437836	985.068420	-49.103249	314.061401	944.866638	-58.186481	255.726959	1033.142334	-66.107819	384.239044	866.808899	-84.073242	301.328644	785.109680	-54.737999	244.070923	722.928528	-62.644348	177.656174	664.835144	-75.518265	277.675720	692.188293	-103.079849	81.186958	588.948120	-95.511185	123.820465	575.887085	-175.047318	32.058205	589.911621	-153.631989	220.300858	393.704071	-134.126663	122.344650	442.944946	-68.050339	102.468056	922.830505	-448.457550	169.210648	865.270874	-434.567566	205.565689	904.426392	-427.938782	225.818695	803.486755	-412.639679	286.253540	711.521484	-393.450195	258.918365	601.367065	-436.255737	256.594269	514.821411	-433.075836	251.337692	429.467133	-423.470703	309.733276	515.551453	-401.219727	241.207428	299.908661	-413.055542	196.501068	267.207520	-375.215088	472.755798	237.349579	-368.220978	370.873840	217.120163	-439.785004	-222.933075	893.601746	-249.679367	-12.006289	84.224716	-453.468079	-20.057032	80.701485	-53.603168	
501	2.5050	506.562927	1330.550903	-119.757393	503.688354	1321.151367	-430.212463	445.594482	1406.910645	-274.219330	457.965179	1238.668701	-265.963409	571.802856	1068.364990	-9.167575	724.982178	854.922607	-54.831581	525.128906	1043.603271	-537.325195	708.545349	879.729614	-440.481232	-73.999092	1170.605103	-258.547974	94.511879	1177.445557	-433.999298	82.545013	1189.508545	-97.791954	101.692276	1129.961548	-402.606384	110.601074	1144.598633	-126.959183	-47.789623	1215.153320	-207.038239	-47.030811	1213.887939	-312.539368	40.330418	1083.337280	-61.238449	46.413189	1039.465332	-442.322693	157.424957	1018.885986	-48.581085	235.101944	989.352966	-48.756771	316.368530	950.397522	-57.748936	256.495422	1037.558350	-67.159729	387.408997	873.305115	-83.396233	304.389374	791.489929	-54.476105	247.180664	729.265015	-62.347218	180.928650	671.066833	-75.562225	281.010315	699.363525	-101.955177	84.958717	594.864441	-95.641411	127.728264	582.069763	-175.365326	35.642490	595.345032	-153.803665	225.253677	400.738007	-134.461502	127.497002	449.425049	-68.122765	101.331955	921.967407	-449.147186	166.972961	863.364807	-435.459686	204.055420	901.707397	-428.603027	222.486954	800.442383	-413.603455	281.493591	707.528809	-394.856506	254.337357	597.251099	-437.562012	252.221024	510.612152	-434.257202	247.247513	425.289429	-424.646240	305.369720	511.535614	-402.382996	237.431900	295.627228	-413.912720	192.637390	264.048187	-376.352295	468.412231	229.464706	-367.890045	366.497742	211.028000	-440.030029	-222.913376	893.629272	-249.748032	-11.985400	84.228844	-453.476166	-20.020763	80.729874	-53.628292	
502	2.5100	507.335907	1331.824707	-119.981194	505.043121	1321.537354	-429.931824	446.670166	1407.932007	-274.510315	458.697784	1240.046509	-265.980408	573.044617	1069.358521	-10.403171	725.304810	855.021179	-55.174416	527.330383	1044.484497	-536.806274	709.519958	879.238098	-439.924561	-72.917572	1171.117310	-259.583618	95.682190	1177.292969	-434.208496	83.252838	1190.973877	-98.397400	107.463928	1130.925537	-405.601410	111.348549	1145.923462	-127.532845	-46.872124	1215.869629	-208.263046	-45.686703	1214.115601	-313.733917	41.289116	1085.072998	-61.498249	47.288990	1039.192139	-442.750305	158.403305	1022.155884	-48.835350	236.732483	994.072449	-48.780365	318.631683	956.273987	-57.664467	257.167511	1042.204346	-68.222267	390.334991	879.737122	-82.925400	307.320496	797.763977	-54.257011	250.304718	735.424622	-62.266735	184.096161	677.043396	-75.758522	284.265411	705.606567	-101.647018	88.792274	600.381042	-95.780037	131.741974	587.805481	-175.626007	39.287712	600.406982	-153.986038	232.868988	409.271576	-133.266235	132.896088	455.819977	-68.196259	99.996185	921.304504	-449.855652	164.519104	861.645142	-436.398590	202.298950	899.290771	-429.417480	218.822845	797.660461	-414.724854	276.522644	703.634399	-396.108978	249.425919	593.298523	-438.936066	247.546814	506.695343	-435.595551	242.851562	421.311401	-425.858215	300.680481	507.760101	-403.686707	234.345627	291.773285	-413.852142	188.495880	261.209167	-377.607513	463.576477	221.859177	-367.568848	361.852844	205.175400	-440.261993	-222.904968	893.654724	-249.831161	-11.977157	84.232689	-453.490173	-20.026451	80.745850	-53.613022	
503	2.5150	508.010651	1333.122925	-120.212105	506.441620	1321.973267	-429.618011	447.748077	1409.038696	-274.821838	459.513977	1241.324341	-266.035065	574.292297	1070.443970	-11.677332	725.583069	855.182007	-55.607227	529.700256	1045.566406	-536.363953	710.535645	878.753723	-439.628021	-71.866241	1171.800781	-260.710663	97.146873	1177.434204	-434.210968	83.986168	1192.343018	-99.061760	108.379295	1130.845459	-405.278015	112.036400	1147.191284	-128.201462	-45.934021	1216.587646	-209.376297	-44.394867	1214.395386	-314.877167	42.083389	1086.758301	-61.834484	47.918369	1039.136475	-443.169464	159.580750	1025.848267	-49.269493	238.270996	998.960388	-49.079723	320.732544	962.268311	-57.976776	258.001221	1047.193237	-68.850929	393.092285	886.026978	-82.532387	310.153229	803.878113	-54.292625	253.342026	741.370728	-62.274574	187.432281	682.761230	-75.979401	287.547485	711.531067	-101.553558	92.649704	605.559448	-96.010292	135.600891	593.525085	-175.938202	43.033321	605.059692	-154.192276	237.653107	415.641266	-134.250351	138.722458	462.156403	-68.201447	98.476128	920.826599	-450.578430	161.704529	860.024597	-437.470825	200.100815	896.973694	-430.705414	214.768356	795.086365	-415.991943	271.128998	699.765259	-397.470367	244.187378	589.545166	-440.432159	242.539032	502.868805	-436.922485	238.068619	417.579315	-427.179199	295.459229	504.130554	-404.800812	230.149658	287.986633	-414.785370	184.074905	258.572876	-378.769165	458.478821	214.638351	-367.328491	356.753174	199.523560	-440.431061	-222.904358	893.673035	-249.933243	-11.960793	84.227188	-453.487732	-20.005299	80.733940	-53.638031	
